<?xml version="1.0" encoding="UTF-8" standalone="no"?>
<!-- Created with Inkscape (http://www.inkscape.org/) -->

<svg
   xmlns:dc="http://purl.org/dc/elements/1.1/"
   xmlns:cc="http://creativecommons.org/ns#"
   xmlns:rdf="http://www.w3.org/1999/02/22-rdf-syntax-ns#"
   xmlns:svg="http://www.w3.org/2000/svg"
   xmlns="http://www.w3.org/2000/svg"
   xmlns:sodipodi="http://sodipodi.sourceforge.net/DTD/sodipodi-0.dtd"
   xmlns:inkscape="http://www.inkscape.org/namespaces/inkscape"
   width="119.38523mm"
   height="140.05475mm"
   viewBox="0 0 119.38523 140.05475"
   version="1.1"
   id="svg8"
   inkscape:version="0.92.5 (2060ec1f9f, 2020-04-08)"
   sodipodi:docname="jestjs.svg">
  <defs
     id="defs2" />
  <sodipodi:namedview
     id="base"
     pagecolor="#ffffff"
     bordercolor="#666666"
     borderopacity="1.0"
     inkscape:pageopacity="0.0"
     inkscape:pageshadow="2"
     inkscape:zoom="0.25"
     inkscape:cx="218.91251"
     inkscape:cy="708.98647"
     inkscape:document-units="mm"
     inkscape:current-layer="layer1"
     showgrid="false"
     inkscape:window-width="1360"
     inkscape:window-height="711"
     inkscape:window-x="1366"
     inkscape:window-y="0"
     inkscape:window-maximized="1"
     showguides="true"
     inkscape:guide-bbox="true"
     fit-margin-top="0"
     fit-margin-left="0"
     fit-margin-right="0"
     fit-margin-bottom="0" />
  <metadata
     id="metadata5">
    <rdf:RDF>
      <cc:Work
         rdf:about="">
        <dc:format>image/svg+xml</dc:format>
        <dc:type
           rdf:resource="http://purl.org/dc/dcmitype/StillImage" />
        <dc:title></dc:title>
      </cc:Work>
    </rdf:RDF>
  </metadata>
  <g
     inkscape:label="Camada 1"
     inkscape:groupmode="layer"
     id="layer1"
     transform="translate(200.0311,-93.359457)">
    <g
       id="g856">
      <path
         sodipodi:nodetypes="cccccsccccccccsccccccsccccccsccccccscsssccscc"
         inkscape:connector-curvature="0"
         id="path826"
         d="m -180.27362,233.302 c -6.13004,-0.58412 -12.43808,-4.14352 -15.67119,-8.84269 -3.10377,-4.51117 -4.53163,-10.95873 -3.9644,-17.90137 0.48489,-5.93493 1.67288,-10.36037 4.49858,-16.75786 3.12524,-7.07568 3.77725,-8.36133 4.16494,-8.21256 0.20464,0.0785 0.52466,0.14277 0.71117,0.14277 0.26536,0 0.28319,0.30214 0.082,1.38906 -0.43851,2.36898 -0.0872,7.41265 0.70114,10.0665 1.97581,6.65119 6.27523,11.84219 12.63854,15.25943 l 2.03011,1.09021 2.6001,-0.96104 c 11.96638,-4.42299 23.73942,-13.77949 31.06063,-24.68513 l 1.43739,-2.14114 1.71978,-0.0135 c 3.22597,-0.0254 6.82935,-1.09096 9.98676,-2.95323 3.46714,-2.04495 6.97565,-6.52102 8.2723,-10.5536 l 0.59272,-1.84334 h 4.4019 4.4019 l 0.47984,1.67548 c 0.80474,2.81 2.39651,5.36201 4.9109,7.87347 2.52151,2.51856 4.53026,3.77381 7.831815,4.89401 1.86525,0.63287 2.54092,0.72129 5.688538,0.74438 3.05871,0.0224 3.85651,-0.0632 5.55305,-0.59585 1.08964,-0.34212 2.42008,-0.84596 2.95653,-1.11963 l 0.97535,-0.49759 0.4137,1.11963 c 2.52204,6.82565 0.70747,15.1812 -4.43511,20.42243 -4.08164,4.15992 -9.076628,6.18112 -19.002423,7.68922 -16.68421,2.53497 -21.3675,4.08376 -38.96429,12.88575 -9.3331,4.66844 -13.96493,6.83392 -18.18212,8.50051 -6.86894,2.71452 -12.77746,3.8129 -17.89014,3.32573 z m 38.19782,-114.94297 c -4.45537,-13.29712 -8.17173,-24.361753 -8.25857,-24.588073 -0.14236,-0.37099 3.27969,-0.4115 34.7653,-0.4115 h 34.923203 l -8.23813,24.588723 c -4.530968,13.5238 -8.307668,24.50731 -8.392668,24.40781 -0.085,-0.0995 -4.192645,-8.5416 -9.128115,-18.76024 -4.93548,-10.21864 -9.03312,-18.57646 -9.10588,-18.57294 -0.0728,0.004 -2.86801,5.62579 -6.21167,12.49392 -3.34365,6.86814 -7.4684,15.30708 -9.1661,18.7532 l -3.08673,6.26567 z"
         style="fill:#000000;stroke-width:0.26458332" />
      <g
         style="fill:#ff0000"
         id="g847">
        <circle
           style="fill:#ff0000;fill-opacity:1;stroke:none;stroke-width:0.39899999;stroke-miterlimit:4;stroke-dasharray:none;stroke-dashoffset:0;stroke-opacity:1"
           id="path834"
           cx="-91.348427"
           cy="161.83617"
           r="8.9307213" />
        <circle
           style="fill:#ff0000;fill-opacity:1;stroke:none;stroke-width:0.39899999;stroke-miterlimit:4;stroke-dasharray:none;stroke-dashoffset:0;stroke-opacity:1"
           id="circle840"
           cx="-138.31194"
           cy="161.83617"
           r="8.9307213" />
        <circle
           r="8.9307213"
           cy="161.83617"
           cx="-185.93698"
           id="circle842"
           style="fill:#ff0000;fill-opacity:1;stroke:none;stroke-width:0.39899999;stroke-miterlimit:4;stroke-dasharray:none;stroke-dashoffset:0;stroke-opacity:1" />
      </g>
    </g>
  </g>
</svg>
