<?xml version="1.0" encoding="UTF-8" standalone="no"?>
<!-- Created with Inkscape (http://www.inkscape.org/) -->

<svg
   xmlns:dc="http://purl.org/dc/elements/1.1/"
   xmlns:cc="http://creativecommons.org/ns#"
   xmlns:rdf="http://www.w3.org/1999/02/22-rdf-syntax-ns#"
   xmlns:svg="http://www.w3.org/2000/svg"
   xmlns="http://www.w3.org/2000/svg"
   xmlns:sodipodi="http://sodipodi.sourceforge.net/DTD/sodipodi-0.dtd"
   xmlns:inkscape="http://www.inkscape.org/namespaces/inkscape"
   width="63.424404mm"
   height="63.424404mm"
   viewBox="0 0 63.424404 63.424404"
   version="1.1"
   id="svg8"
   inkscape:version="0.92.5 (2060ec1f9f, 2020-04-08)"
   sodipodi:docname="logo.svg">
  <defs
     id="defs2">
    <clipPath
       clipPathUnits="userSpaceOnUse"
       id="clipPath852">
      <path
         style="fill:none;stroke:#000000;stroke-width:0.26458332px;stroke-linecap:butt;stroke-linejoin:miter;stroke-opacity:1"
         d="m 49.136906,109.52381 c 0,0 -1.13393,39.30952 0,40.82143 1.133927,1.5119 56.318454,3.02381 56.318454,3.02381 l -5.669645,-43.84524 z"
         id="path854"
         inkscape:connector-curvature="0" />
    </clipPath>
  </defs>
  <sodipodi:namedview
     id="base"
     pagecolor="#ffffff"
     bordercolor="#666666"
     borderopacity="1.0"
     inkscape:pageopacity="0.0"
     inkscape:pageshadow="2"
     inkscape:zoom="1.4142136"
     inkscape:cx="106.92581"
     inkscape:cy="99.732595"
     inkscape:document-units="mm"
     inkscape:current-layer="layer1"
     showgrid="false"
     showguides="true"
     inkscape:guide-bbox="true"
     inkscape:window-width="1366"
     inkscape:window-height="711"
     inkscape:window-x="0"
     inkscape:window-y="0"
     inkscape:window-maximized="1"
     fit-margin-top="0"
     fit-margin-left="0"
     fit-margin-right="0"
     fit-margin-bottom="0" />
  <metadata
     id="metadata5">
    <rdf:RDF>
      <cc:Work
         rdf:about="">
        <dc:format>image/svg+xml</dc:format>
        <dc:type
           rdf:resource="http://purl.org/dc/dcmitype/StillImage" />
        <dc:title />
      </cc:Work>
    </rdf:RDF>
  </metadata>
  <g
     inkscape:label="Camada 1"
     inkscape:groupmode="layer"
     id="layer1"
     transform="translate(-66.183634,-128.08243)">
    <circle
       r="31.712202"
       cy="159.79463"
       cx="97.895836"
       id="path943"
       style="fill:#d5d7d7;fill-opacity:1;stroke:none;stroke-width:1.26241195;stroke-miterlimit:4;stroke-dasharray:none;stroke-opacity:1" />
    <g
       id="g950">
      <rect
         y="139.40535"
         x="116.29015"
         height="13.395162"
         width="0.66820157"
         id="rect868"
         style="fill:#ffffff;fill-opacity:1;stroke:#ffffff;stroke-width:0.19309644;stroke-miterlimit:4;stroke-dasharray:none;stroke-dashoffset:0;stroke-opacity:1" />
      <circle
         r="1.3012682"
         cy="138.20888"
         cx="116.62424"
         id="path870"
         style="fill:#b3b3b3;fill-opacity:1;stroke:#b3b3b3;stroke-width:0.36630598;stroke-miterlimit:4;stroke-dasharray:none;stroke-dashoffset:0;stroke-opacity:1" />
    </g>
    <path
       style="fill:#b3b3b3;fill-opacity:1;stroke:#b3b3b3;stroke-width:0.40180045;stroke-miterlimit:4;stroke-dasharray:none;stroke-dashoffset:0;stroke-opacity:1"
       d="m 121.40564,159.39361 c 0,6.66239 -7.38064,7.27397 -7.38064,7.27397 v -14.54793 c 0,0 7.38064,0.61157 7.38064,7.27396 z"
       id="path857"
       inkscape:connector-curvature="0"
       sodipodi:nodetypes="zccz" />
    <g
       id="g946"
       transform="translate(0.81862616)">
      <rect
         style="fill:#ffffff;fill-opacity:1;stroke:#ffffff;stroke-width:0.19309644;stroke-miterlimit:4;stroke-dasharray:none;stroke-dashoffset:0;stroke-opacity:1"
         id="rect886"
         width="0.66820157"
         height="13.395162"
         x="78.904701"
         y="139.40535" />
      <circle
         style="fill:#b3b3b3;fill-opacity:1;stroke:#b3b3b3;stroke-width:0.36630598;stroke-miterlimit:4;stroke-dasharray:none;stroke-dashoffset:0;stroke-opacity:1"
         id="circle888"
         cx="79.2388"
         cy="138.20888"
         r="1.3012682" />
    </g>
    <path
       sodipodi:nodetypes="zccz"
       inkscape:connector-curvature="0"
       id="path860"
       d="m 75.223869,159.39361 c 0,6.66239 7.380599,7.27397 7.380599,7.27397 v -14.54793 c 0,0 -7.380599,0.61157 -7.380599,7.27396 z"
       style="fill:#b3b3b3;fill-opacity:1;stroke:#b3b3b3;stroke-width:0.40180045;stroke-miterlimit:4;stroke-dasharray:none;stroke-dashoffset:0;stroke-opacity:1" />
    <path
       style="fill:#108e08;fill-opacity:1;stroke:#ffffff;stroke-width:3.32154155;stroke-miterlimit:4;stroke-dasharray:none;stroke-dashoffset:0;stroke-opacity:1"
       d="m 98.34488,143.11274 a 17.144893,17.144893 0 0 0 -17.144615,17.14461 17.144893,17.144893 0 0 0 2.720326,9.26639 l -2.628764,8.15481 8.270577,-2.71984 a 17.144893,17.144893 0 0 0 8.782476,2.44374 17.144893,17.144893 0 0 0 17.14509,-17.1451 17.144893,17.144893 0 0 0 -17.14509,-17.14461 z"
       id="path866"
       inkscape:connector-curvature="0" />
    <g
       transform="matrix(0.1472897,0,0,0.1472897,69.497652,134.89457)"
       style="fill:#ffffff;stroke:#108e08;stroke-width:9.34953499;stroke-miterlimit:4;stroke-dasharray:none;stroke-opacity:1"
       id="g994">
      <path
         inkscape:connector-curvature="0"
         style="fill:#ffffff;fill-opacity:1;stroke:#108e08;stroke-width:9.34953499;stroke-miterlimit:4;stroke-dasharray:none;stroke-opacity:1"
         d="m 150.58789,243.54102 c -0.36779,-0.001 -0.73962,0.005 -1.11328,0.0215 -6.15573,1.81921 -8.52964,13.14682 -8.28125,24.40234 -0.24839,11.25552 2.12552,22.58314 8.28125,24.40235 0.37366,0.0165 0.74549,0.0225 1.11328,0.0215 11.40147,-0.0421 20.04552,-8.35722 29.82617,-13.26172 -0.80491,-4.06857 -1.06819,-7.72931 -1.02539,-11.16211 -0.0428,-3.4328 0.22048,-7.09354 1.02539,-11.16211 -9.78065,-4.9045 -18.4247,-13.21964 -29.82617,-13.26171 z"
         id="rect957" />
      <path
         id="path966"
         d="m 232.24023,243.54102 c 0.36779,-0.001 0.73962,0.005 1.11328,0.0215 6.15573,1.81921 8.52964,13.14682 8.28125,24.40234 0.24839,11.25552 -2.12552,22.58314 -8.28125,24.40235 -0.37366,0.0165 -0.74549,0.0225 -1.11328,0.0215 -11.40147,-0.0421 -20.04552,-8.35722 -29.82617,-13.26172 0.80491,-4.06857 1.06819,-7.72931 1.02539,-11.16211 0.0428,-3.4328 -0.22048,-7.09354 -1.02539,-11.16211 9.78065,-4.9045 18.4247,-13.21964 29.82617,-13.26171 z"
         style="fill:#ffffff;fill-opacity:1;stroke:#108e08;stroke-width:9.34953499;stroke-miterlimit:4;stroke-dasharray:none;stroke-opacity:1"
         inkscape:connector-curvature="0" />
      <rect
         style="fill:#ffffff;fill-opacity:1;stroke:#108e08;stroke-width:9.34953499;stroke-miterlimit:4;stroke-dasharray:none;stroke-opacity:1"
         id="rect968"
         width="17.898523"
         height="22.373156"
         x="182.36707"
         y="256.77759"
         rx="5.8337026"
         ry="5.8337026" />
    </g>
    <path
       sodipodi:nodetypes="sscccszss"
       inkscape:connector-curvature="0"
       id="path996"
       d="m 91.952275,141.48513 c -2.400807,0.33254 -4.580898,1.16103 -6.436445,2.01539 -2.013606,0.92713 0.827589,4.83013 2.642291,5.48122 11.813058,-2.48398 14.775059,-0.18183 22.570129,1.98323 3.05009,-3.00357 1.49592,-4.76908 1.49592,-4.76908 -1.71698,-1.40557 -2.14961,-1.54711 -4.89475,-2.7019 -1.54262,-0.64893 -1.45445,-2.75437 -4.94285,-3.67068 -3.488403,-0.91632 -5.101942,-0.88778 -7.216133,-0.32137 -1.173924,0.31451 -2.427495,1.87368 -3.218162,1.98319 z"
       style="color:#000000;font-style:normal;font-variant:normal;font-weight:normal;font-stretch:normal;font-size:medium;line-height:normal;font-family:sans-serif;font-variant-ligatures:normal;font-variant-position:normal;font-variant-caps:normal;font-variant-numeric:normal;font-variant-alternates:normal;font-feature-settings:normal;text-indent:0;text-align:start;text-decoration:none;text-decoration-line:none;text-decoration-style:solid;text-decoration-color:#000000;letter-spacing:normal;word-spacing:normal;text-transform:none;writing-mode:lr-tb;direction:ltr;text-orientation:mixed;dominant-baseline:auto;baseline-shift:baseline;text-anchor:start;white-space:normal;shape-padding:0;clip-rule:nonzero;display:inline;overflow:visible;visibility:visible;opacity:1;isolation:auto;mix-blend-mode:normal;color-interpolation:sRGB;color-interpolation-filters:linearRGB;solid-color:#000000;solid-opacity:1;vector-effect:none;fill:#ffffff;fill-opacity:1;fill-rule:nonzero;stroke:#108e08;stroke-width:1.3770901;stroke-linecap:butt;stroke-linejoin:miter;stroke-miterlimit:4;stroke-dasharray:none;stroke-dashoffset:0;stroke-opacity:1;color-rendering:auto;image-rendering:auto;shape-rendering:auto;text-rendering:auto;enable-background:accumulate" />
    <g
       id="g866"
       transform="matrix(0.9180601,0,0,0.9180601,49.432362,17.123395)">
      <g
         style="fill:#ffffff;stroke:#008000"
         transform="matrix(1.4480789,0,0,1.4480789,12.268541,-39.609078)"
         id="g855">
        <circle
           style="fill:#ffffff;fill-opacity:1;stroke:#008000;stroke-width:0.39899999;stroke-miterlimit:4;stroke-dasharray:none;stroke-dashoffset:0;stroke-opacity:1"
           id="path846"
           cx="22.716372"
           cy="131.40862"
           r="1.8898809" />
        <circle
           r="1.8898809"
           cy="131.40862"
           cx="33.299706"
           id="circle848"
           style="fill:#ffffff;fill-opacity:1;stroke:#008000;stroke-width:0.39899999;stroke-miterlimit:4;stroke-dasharray:none;stroke-dashoffset:0;stroke-opacity:1" />
      </g>
      <path
         sodipodi:nodetypes="czcc"
         inkscape:connector-curvature="0"
         id="path850"
         d="m 61.035851,156.40064 c 0,0 -0.96796,6.59613 -8.210046,6.67754 -7.242112,0.0814 -8.21009,-6.67754 -8.21009,-6.67754 z"
         style="fill:#ffffff;fill-opacity:1;stroke:#008000;stroke-width:0.57778347;stroke-miterlimit:4;stroke-dasharray:none;stroke-dashoffset:0;stroke-opacity:1" />
    </g>
  </g>
</svg>
